<?xml version="1.0" encoding="utf-8"?><svg viewBox="0 0 642 216" xmlns="http://www.w3.org/2000/svg" xmlns:xlink="http://www.w3.org/1999/xlink"><style>:root>svg{display:none}:root>svg:target{display:block}</style><svg viewBox="0 0 228 64" id="bg-btn" xmlns="http://www.w3.org/2000/svg"><path d="M4.701 3.16C5.38 1.235 7.23 0 9.271 0H218.73c2.04 0 3.891 1.235 4.569 3.16 6.396 18.163 6.147 38.973-.027 57.248-.663 1.962-2.532 3.235-4.604 3.235H9.332c-2.072 0-3.942-1.273-4.605-3.235-6.173-18.275-6.422-39.086-.026-57.248z"/></svg><svg viewBox="0 0 642 216" id="bg-mission-blur" xmlns="http://www.w3.org/2000/svg"><g opacity=".8" filter="url(#ba)"><rect x="50" y="50" width="542" height="116" rx="9.943"/></g><defs><radialGradient id="bb" cx="0" cy="0" r="1" gradientUnits="userSpaceOnUse" gradientTransform="matrix(.53453 120.24381 -561.83745 2.49758 321 108)"><stop stop-color="#93D0FC"/><stop offset="1" stop-color="#93D0FC" stop-opacity=".63"/></radialGradient><filter id="ba" x=".286" y=".286" width="641.429" height="215.429" filterUnits="userSpaceOnUse" color-interpolation-filters="sRGB"><feFlood flood-opacity="0" result="BackgroundImageFix"/><feBlend in="SourceGraphic" in2="BackgroundImageFix" result="shape"/><feGaussianBlur stdDeviation="24.857" result="effect1_foregroundBlur_106_2"/></filter></defs></svg><svg viewBox="0 0 34 34" id="btn-accordion" xmlns="http://www.w3.org/2000/svg"><path d="M17 3v28M3 17h28"/></svg><svg viewBox="0 0 29 29" id="btn-inst-svg" xmlns="http://www.w3.org/2000/svg"><path fill-rule="evenodd" clip-rule="evenodd" d="M21.616.052c3.62.556 6.231 3.148 6.81 6.763l.052.32.008 6.911c.009 7.29.01 7.209-.101 7.863-.587 3.465-3.34 6.082-6.888 6.546-.35.046-14.161.046-14.51 0-3.697-.484-6.478-3.26-6.951-6.94-.048-.369-.048-14.165 0-14.534C.523 3.196 3.48.348 7.27.014c.4-.034 14.106.002 14.346.038zm1.727 3.177c-1.17.306-1.564 1.771-.707 2.624.864.86 2.325.462 2.626-.715.295-1.152-.77-2.21-1.919-1.91zm-9.636 3.127c-5.611.36-9.086 6.471-6.519 11.467 2.849 5.543 10.636 5.81 13.844.476 3.266-5.432-.977-12.35-7.325-11.943zm1.169 3.179c3.514.455 5.308 4.572 3.249 7.456-2.102 2.945-6.59 2.58-8.159-.665-1.65-3.41 1.148-7.279 4.91-6.791z"/></svg><svg viewBox="0 0 27 30" id="btn-video-arrow" xmlns="http://www.w3.org/2000/svg"><g filter="url(#ea)"><path d="M21.93 9.395c1.334.77 1.334 2.694 0 3.464l-14.705 8.49c-1.333.77-3-.192-3-1.732V2.637c0-1.54 1.667-2.502 3-1.733l14.706 8.49z"/></g><defs><filter id="ea" x=".225" y=".634" width="26.706" height="28.987" filterUnits="userSpaceOnUse" color-interpolation-filters="sRGB"><feFlood flood-opacity="0" result="BackgroundImageFix"/><feColorMatrix in="SourceAlpha" values="0 0 0 0 0 0 0 0 0 0 0 0 0 0 0 0 0 0 127 0" result="hardAlpha"/><feOffset dy="4"/><feGaussianBlur stdDeviation="2"/><feComposite in2="hardAlpha" operator="out"/><feColorMatrix values="0 0 0 0 0 0 0 0 0 0 0 0 0 0 0 0 0 0 0.15 0"/><feBlend in2="BackgroundImageFix" result="effect1_dropShadow_341_89"/><feBlend in="SourceGraphic" in2="effect1_dropShadow_341_89" result="shape"/></filter></defs></svg><svg viewBox="0 0 99 99" id="btn-video-border" xmlns="http://www.w3.org/2000/svg"><circle cx="49.5" cy="49.5" r="48.5"/></svg><svg viewBox="0 0 61 61" id="btn-video-circle" xmlns="http://www.w3.org/2000/svg"><circle cx="30.5" cy="30.5" r="29.846"/></svg></svg>